<svg width="32" height="20" fill="none" xmlns="http://www.w3.org/2000/svg"><path d="M29 0H3a3 3 0 0 0-3 3v14a3 3 0 0 0 3 3h26a3 3 0 0 0 3-3V3a3 3 0 0 0-3-3ZM14.4 15.9l-1.7.1c-.7 0-1.4-.1-2-.3-.6-.2-1.2-.6-1.6-1-.4-.4-.8-1.1-1.1-1.9-.3-.8-.4-1.7-.4-2.8 0-1.1.2-2.1.5-2.9.3-.8.7-1.4 1.2-1.9s1.1-.8 1.7-1a10 10 0 0 1 3.5-.1l1.1.3-.4 1.9-.9-.3H13c-.9 0-1.6.3-2.2 1-.6.7-.8 1.7-.8 3l.2 1.6c.1.5.3.9.6 1.3l1 .8c.4.2.9.3 1.4.3l1.3-.1.9-.4.5 1.8-1.5.6Zm8.7 0-1.7.1c-.7 0-1.4-.1-2-.3-.6-.2-1.2-.6-1.6-1a4 4 0 0 1-1.1-1.9c-.3-.8-.4-1.7-.4-2.8 0-1.1.2-2.1.5-2.9.3-.8.7-1.4 1.2-1.9s1.1-.8 1.7-1a10 10 0 0 1 3.5-.1l1.1.3-.4 1.9L23 6h-1.3c-.9 0-1.6.3-2.2 1-.6.7-.8 1.7-.8 3l.2 1.6c.1.5.3.9.6 1.3l1 .8c.4.2.9.3 1.4.3l1.3-.1.9-.4.5 1.8-1.5.6Z" fill="#5C6870"/></svg>